<svg xmlns="http://www.w3.org/2000/svg" xmlns:xlink="http://www.w3.org/1999/xlink" viewBox="0 0 1952.19 1952.19"><defs><symbol id="a" viewBox="0 0 145 117.81"><polygon points="145 26.78 118.19 0 53.99 64.22 26.81 37.04 0 63.85 53.95 117.81 53.99 117.74 54.06 117.81 145 26.78" fill="lime"/></symbol><symbol id="d" viewBox="0 0 608.6 350.25"><polygon points="302.21 119.81 181.03 207.78 227.32 350.13 377.11 350.13 423.4 207.78 302.21 119.81" fill="#d89fff" stroke="#000" stroke-miterlimit="10" stroke-width="0.25"/><polyline points="181.11 210.13 181.11 139.13 121.06 139.13" fill="none" stroke="#000" stroke-miterlimit="10" stroke-width="2"/><line x1="423.82" y1="207.63" x2="423.82" y2="103.63" fill="none" stroke="#000" stroke-miterlimit="10" stroke-width="2"/><polygon points="161.15 139.13 119 151.46 145.73 186.32 104.39 171.42 105.56 215.34 80.8 179.03 56.04 215.34 57.21 171.42 15.87 186.32 42.6 151.46 0.45 139.13 42.6 126.79 15.87 91.93 57.21 106.83 56.04 62.91 80.8 99.23 105.56 62.91 104.39 106.83 145.73 91.93 119 126.79 161.15 139.13" fill="#fff82c"/><polygon points="161.15 139.13 119 151.46 145.73 186.32 104.39 171.42 105.56 215.34 80.8 179.03 56.04 215.34 57.21 171.42 15.87 186.32 42.6 151.46 0.45 139.13 42.6 126.79 15.87 91.93 57.21 106.83 56.04 62.91 80.8 99.23 105.56 62.91 104.39 106.83 145.73 91.93 119 126.79 161.15 139.13" fill="none" stroke="#000" stroke-miterlimit="10" stroke-width="0.25"/><rect x="422.31" y="0.13" width="186.16" height="120" fill="#b0dcff" stroke="#000" stroke-miterlimit="10" stroke-width="0.25"/></symbol><symbol id="c" viewBox="0 0 757.63 718.25"><line x1="228.33" y1="472.15" x2="228.33" y2="350.12" fill="#fff82c" stroke="#000" stroke-miterlimit="10" stroke-width="2.24"/><use width="608.6" height="350.25" transform="translate(149.03 368)" xlink:href="#d"/><use width="608.6" height="350.25" transform="translate(0 0)" xlink:href="#d"/></symbol><symbol id="h" viewBox="0 0 863.47 350.25"><polygon points="555.84 119.81 434.76 207.78 481.01 350.13 630.68 350.13 676.93 207.78 555.84 119.81" fill="#d89fff" stroke="#000" stroke-miterlimit="10" stroke-width="0.25"/><polygon points="380.84 138.63 343.08 146.73 364.93 178.7 328.73 163.69 336.08 202.13 305.51 177.51 304.74 216.72 278.59 187.44 272.55 226.21 249.98 194.08 239.94 232.03 220.54 197.89 207.14 234.79 190.72 199.13 174.3 234.79 160.9 197.89 141.51 232.03 131.46 194.08 108.89 226.21 102.85 187.44 76.69 216.72 75.93 177.5 45.36 202.13 52.7 163.69 16.5 178.69 38.36 146.72 0.6 138.63 38.36 130.52 16.51 98.55 52.71 113.56 45.37 75.12 75.94 99.74 76.7 60.53 102.85 89.81 108.89 51.04 131.46 83.17 141.5 45.22 160.9 79.36 174.3 42.46 190.72 78.13 207.14 42.46 220.54 79.36 239.93 45.22 249.98 83.17 272.55 51.04 278.59 89.81 304.75 60.53 305.51 99.75 336.08 75.13 328.74 113.56 364.94 98.56 343.08 130.53 380.84 138.63" fill="#fff82c"/><polygon points="380.84 138.63 343.08 146.73 364.93 178.7 328.73 163.69 336.08 202.13 305.51 177.51 304.74 216.72 278.59 187.44 272.55 226.21 249.98 194.08 239.94 232.03 220.54 197.89 207.14 234.79 190.72 199.13 174.3 234.79 160.9 197.89 141.51 232.03 131.46 194.08 108.89 226.21 102.85 187.44 76.69 216.72 75.93 177.5 45.36 202.13 52.7 163.69 16.5 178.69 38.36 146.72 0.6 138.63 38.36 130.52 16.51 98.55 52.71 113.56 45.37 75.12 75.94 99.74 76.7 60.53 102.85 89.81 108.89 51.04 131.46 83.17 141.5 45.22 160.9 79.36 174.3 42.46 190.72 78.13 207.14 42.46 220.54 79.36 239.93 45.22 249.98 83.17 272.55 51.04 278.59 89.81 304.75 60.53 305.51 99.75 336.08 75.13 328.74 113.56 364.94 98.56 343.08 130.53 380.84 138.63" fill="none" stroke="#000" stroke-miterlimit="10" stroke-width="0.25"/><polyline points="434.84 210.13 434.84 139.13 374.84 139.13" fill="none" stroke="#000" stroke-miterlimit="10" stroke-width="2"/><line x1="677.34" y1="207.63" x2="677.34" y2="103.63" fill="none" stroke="#000" stroke-miterlimit="10" stroke-width="2"/><rect x="677.34" y="0.13" width="186" height="120" fill="#b0dcff" stroke="#000" stroke-miterlimit="10" stroke-width="0.25"/></symbol><symbol id="i" viewBox="0 0 174.24 106.82"><polygon points="82.68 80.14 31.58 96.74 0 53.28 31.58 9.81 82.68 26.41 82.68 80.14" fill="aqua"/><polygon points="127.99 106.82 81.73 80.11 81.73 26.7 127.99 0 174.24 26.7 174.24 80.11 127.99 106.82" fill="aqua"/></symbol><symbol id="j" viewBox="0 0 92.51 106.82"><polygon points="46.25 106.82 0 80.11 0 26.7 46.25 0 92.51 26.7 92.51 80.11 46.25 106.82" fill="#29abe2"/></symbol><symbol id="m" viewBox="0 0 70 520"><rect width="70" height="520" fill="#f3e8b9"/><line y1="10" x2="40" y2="10" fill="none" stroke="#000" stroke-miterlimit="10"/><line y1="50" x2="10" y2="50" fill="none" stroke="#000" stroke-miterlimit="10"/><line y1="110" x2="40" y2="110" fill="none" stroke="#000" stroke-miterlimit="10"/><line y1="20" x2="10" y2="20" fill="none" stroke="#000" stroke-miterlimit="10"/><line y1="40" x2="10" y2="40" fill="none" stroke="#000" stroke-miterlimit="10"/><line y1="30" x2="10" y2="30" fill="none" stroke="#000" stroke-miterlimit="10"/><line y1="60" x2="20" y2="60" fill="none" stroke="#000" stroke-miterlimit="10"/><line y1="100" x2="10" y2="100" fill="none" stroke="#000" stroke-miterlimit="10"/><line y1="70" x2="10" y2="70" fill="none" stroke="#000" stroke-miterlimit="10"/><line y1="90" x2="10" y2="90" fill="none" stroke="#000" stroke-miterlimit="10"/><line y1="80" x2="10" y2="80" fill="none" stroke="#000" stroke-miterlimit="10"/><line y1="150" x2="10" y2="150" fill="none" stroke="#000" stroke-miterlimit="10"/><line y1="120" x2="10" y2="120" fill="none" stroke="#000" stroke-miterlimit="10"/><line y1="140" x2="10" y2="140" fill="none" stroke="#000" stroke-miterlimit="10"/><line y1="130" x2="10" y2="130" fill="none" stroke="#000" stroke-miterlimit="10"/><line y1="160" x2="20" y2="160" fill="none" stroke="#000" stroke-miterlimit="10"/><line y1="200" x2="10" y2="200" fill="none" stroke="#000" stroke-miterlimit="10"/><line y1="170" x2="10" y2="170" fill="none" stroke="#000" stroke-miterlimit="10"/><line y1="190" x2="10" y2="190" fill="none" stroke="#000" stroke-miterlimit="10"/><line y1="180" x2="10" y2="180" fill="none" stroke="#000" stroke-miterlimit="10"/><line y1="210" x2="40" y2="210" fill="none" stroke="#000" stroke-miterlimit="10"/><line y1="250" x2="10" y2="250" fill="none" stroke="#000" stroke-miterlimit="10"/><line y1="310" x2="40" y2="310" fill="none" stroke="#000" stroke-miterlimit="10"/><line y1="220" x2="10" y2="220" fill="none" stroke="#000" stroke-miterlimit="10"/><line y1="240" x2="10" y2="240" fill="none" stroke="#000" stroke-miterlimit="10"/><line y1="230" x2="10" y2="230" fill="none" stroke="#000" stroke-miterlimit="10"/><line y1="260" x2="20" y2="260" fill="none" stroke="#000" stroke-miterlimit="10"/><line y1="300" x2="10" y2="300" fill="none" stroke="#000" stroke-miterlimit="10"/><line y1="270" x2="10" y2="270" fill="none" stroke="#000" stroke-miterlimit="10"/><line y1="290" x2="10" y2="290" fill="none" stroke="#000" stroke-miterlimit="10"/><line y1="280" x2="10" y2="280" fill="none" stroke="#000" stroke-miterlimit="10"/><line y1="350" x2="10" y2="350" fill="none" stroke="#000" stroke-miterlimit="10"/><line y1="320" x2="10" y2="320" fill="none" stroke="#000" stroke-miterlimit="10"/><line y1="340" x2="10" y2="340" fill="none" stroke="#000" stroke-miterlimit="10"/><line y1="330" x2="10" y2="330" fill="none" stroke="#000" stroke-miterlimit="10"/><line y1="360" x2="20" y2="360" fill="none" stroke="#000" stroke-miterlimit="10"/><line y1="400" x2="10" y2="400" fill="none" stroke="#000" stroke-miterlimit="10"/><line y1="370" x2="10" y2="370" fill="none" stroke="#000" stroke-miterlimit="10"/><line y1="390" x2="10" y2="390" fill="none" stroke="#000" stroke-miterlimit="10"/><line y1="380" x2="10" y2="380" fill="none" stroke="#000" stroke-miterlimit="10"/><line y1="410" x2="40" y2="410" fill="none" stroke="#000" stroke-miterlimit="10"/><line y1="450" x2="10" y2="450" fill="none" stroke="#000" stroke-miterlimit="10"/><line y1="510" x2="40" y2="510" fill="none" stroke="#000" stroke-miterlimit="10"/><line y1="420" x2="10" y2="420" fill="none" stroke="#000" stroke-miterlimit="10"/><line y1="440" x2="10" y2="440" fill="none" stroke="#000" stroke-miterlimit="10"/><line y1="430" x2="10" y2="430" fill="none" stroke="#000" stroke-miterlimit="10"/><line y1="460" x2="20" y2="460" fill="none" stroke="#000" stroke-miterlimit="10"/><line y1="500" x2="10" y2="500" fill="none" stroke="#000" stroke-miterlimit="10"/><line y1="470" x2="10" y2="470" fill="none" stroke="#000" stroke-miterlimit="10"/><line y1="490" x2="10" y2="490" fill="none" stroke="#000" stroke-miterlimit="10"/><line y1="480" x2="10" y2="480" fill="none" stroke="#000" stroke-miterlimit="10"/></symbol></defs><title>helix</title><polygon points="1575.29 736.17 1550.91 711.78 1575.28 687.42 1559.03 671.2 1534.66 695.54 1510.28 671.18 1494.06 687.42 1518.43 711.78 1494.06 736.17 1510.28 752.39 1534.66 728.03 1559.03 752.39 1575.29 736.17" fill="#c1272d"/><use width="145" height="117.81" transform="translate(1479.14 293.27) scale(0.83 0.83)" xlink:href="#a"/><use width="145" height="117.81" transform="translate(1475 417.58) scale(0.83 0.82)" xlink:href="#a"/><polygon points="1575.29 599.43 1550.91 575.04 1575.28 550.68 1559.03 534.46 1534.66 558.8 1510.28 534.43 1494.06 550.68 1518.43 575.04 1494.06 599.43 1510.28 615.65 1534.66 591.28 1559.03 615.65 1575.29 599.43" fill="#c1272d"/><rect x="795.5" y="247.5" width="475.72" height="266" fill="#b0dcff" stroke="#000" stroke-miterlimit="10" stroke-width="0.63" opacity="0.5"/><path d="M557,1706.5c.39,8.55-.69,17-1.7,25.48-.45,3.71-4.36,5.82-7.79,7.53-13.2,6.58-27.3,10.5-41.53,13.92-16.43,4-33.12,6.89-49.44,11.21-16.81,4.45-33.28,10.08-49.63,16.13-10.62,3.93-21.19,8-31.35,12.86-13.8,6.64-26.48,15.11-35.49,27.92-2.52,3.58-5.7,7-5.57,12" fill="none" stroke="#000" stroke-linecap="round" stroke-linejoin="round" stroke-width="2"/><path d="M495.5,1649c-16.83,4-33.6,8.3-50.51,11.93-27.19,5.83-52.23,16.35-74.43,33.15-7.87,6-14,13.52-15,23.92-.7,7-4,13.7-2.64,21,.21,1.2-1.1,2.61-1.37,4-1.39,7.13-.31,13.85,4.53,19.44,3,3.45,6.61,6.38,9.94,9.55" fill="none" stroke="#000" stroke-linecap="round" stroke-linejoin="round" stroke-width="2"/><path d="M554.5,1366c-15.5,3.67-31,7.58-46.51,10.94A191.09,191.09,0,0,0,438.52,1407c-2.32,1.61-4.29,3.72-6.53,5.45-6.59,5.09-9.66,12-11.07,20a180.28,180.28,0,0,0-3,26c-.13,4.62,2.17,8,5.08,11,4.9,5.1,10,10,15,15" fill="none" stroke="#000" stroke-linecap="round" stroke-linejoin="round" stroke-width="2"/><path d="M600,1378.5c5.31,7,11.94,13,16.07,21,4.35,8.41,7.31,16.67,5.7,26.58a119.75,119.75,0,0,0-1.56,18.46c0,6.7-3.47,9.78-8.68,12.56-11.4,6.09-23.76,9.36-36,13-19.24,5.63-39.15,8.39-58.47,13.59-12.31,3.31-24.48,7.25-36.5,11.48-17.14,6-34.19,12.26-50.07,21.35A91.53,91.53,0,0,0,400,1544.5" fill="none" stroke="#000" stroke-linecap="round" stroke-linejoin="round" stroke-width="2"/><path d="M684.5,1140.5c0,6.67-.35,13.36.11,20,.39,5.8-2.12,9.49-6.6,12.53-11.3,7.66-24.16,11.58-37,15.46-19,5.75-38.64,9.13-57.93,13.78-11,2.66-22.12,5.92-32.56,10.74" fill="none" stroke="#000" stroke-linecap="round" stroke-linejoin="round" stroke-width="2"/><path d="M567.5,1387.5c4.4-3.51,10-2.82,15-4.35,14.9-4.56,30-8.4,43.94-15.66a50.93,50.93,0,0,0,8-4.56,13.88,13.88,0,0,0,5.71-9.41c1.16-8.24,3.85-16.28,4.7-24.54,1.49-14.27-3.72-26.85-13-37.38-8.56-9.75-16.48-20.06-25.83-29.15-13.15-12.81-27.7-24-41.55-36-5.18-4.48-10.39-8.93-15.55-13.37-9.93,3.15-19.69,7-29.46,10.86-15.37,6.07-30,13.64-42.34,24.68-5.23,4.67-8.82,11.16-13.15,16.83" fill="none" stroke="#000" stroke-linecap="round" stroke-linejoin="round" stroke-width="2"/><path d="M408,1781q17.75,15.49,35.49,31c10.81,9.5,22.36,18.24,32,29s19.94,21.06,27.48,33.49c8.24,13.57,10.06,27.8,2.57,42.46" fill="none" stroke="#000" stroke-linecap="round" stroke-linejoin="round" stroke-width="2"/><path d="M683.5,1143c-9.93,9.45-22.44,14.12-35,18.43-23,7.89-46.76,13.16-70.42,18.8-22.7,5.42-45.93,9.42-67.09,20.22-14.67,7.49-29,15.34-40,28-3.74,4.32-4.19,9.65-5.09,15-1.66,10-3.05,19.88-2.42,30a20.74,20.74,0,0,0,6,13.52c17.81,18.61,36.94,35.77,56.46,52.55,9,7.71,17.77,15.6,27,23a23.53,23.53,0,0,1,2.91,3.33c9.42-2.29,18.86-4.24,28.09-6.93,17.8-5.2,36.06-9.21,52.08-19.33,2.47-1.56,4.33-3.82,6.94-5.1" fill="none" stroke="#000" stroke-linecap="round" stroke-linejoin="round" stroke-width="2"/><path d="M494.5,1465c-6.79,3.4-14.37,4.25-21.56,6.31A160.51,160.51,0,0,0,429.5,1491c-7.61,4.92-14.84,10.21-21.09,16.92-5.15,5.52-5.4,12.58-7.35,19.1-2.28,7.63-1.62,15.66-2.48,23.49-.63,5.72,1.61,10.88,5.47,14.94,17.58,18.49,36.52,35.52,55.84,52.17,12.28,10.58,24.59,21.09,37,31.35,8-2.74,16.5-3.26,24.1-7" fill="none" stroke="#000" stroke-linecap="round" stroke-linejoin="round" stroke-width="2"/><path d="M483,1495.5c9.67,8,19.45,15.86,29,24,12,10.3,24.54,20.07,35,32,8.56,9.82,17.61,19.28,24.61,30.41s8.27,22.75,6.26,35.58c-.92,5.89-1.8,12-2.14,18-.38,6.67-4.13,10.27-9.14,13.52-11.25,7.29-23.95,11-36.53,15-14.59,4.63-29.74,7-44.49,11" fill="none" stroke="#000" stroke-linecap="round" stroke-linejoin="round" stroke-width="2"/><path d="M621,1426.5c-12.23,10.31-27.17,14.84-42,19.43-7.21,2.23-14.82,3.23-21.93,5.7-8.08,2.82-15.84,2.82-24.07.95q-32.42-7.36-65-14c-9.15-1.87-18.48-2.91-27.48-5.58" fill="none" stroke="#000" stroke-linecap="round" stroke-linejoin="round" stroke-width="2"/><path d="M611,1299c1.86,5.29,6.76,8.31,9.67,12.89,1.54,2.42,2.76,5.36,5.84,6.71l-.75,1.6-125.71-26.58c-.45,4.11.41,7.73.87,11.07C524,1309.48,547,1314.17,570,1319c20.85,4.4,41.62,9.2,62.54,13.29,4,.77,3.39,4.1,5.46,5.69" fill="none" stroke="#000" stroke-linecap="round" stroke-linejoin="round" stroke-width="2"/><path d="M471.5,1597.5c7.07-.64,13.76,1.71,20.47,3.14,21.84,4.65,43.55,9.87,65.52,13.91,4.4.81,8.68,2.28,13,3.45" fill="none" stroke="#000" stroke-linecap="round" stroke-linejoin="round" stroke-width="2"/><path d="M426.5,1557c6.42-.16,12.36,2.15,18.51,3.44,16.63,3.51,33.36,6.58,50,10.11,14.33,3,28.53,6.64,43,9,4,.66,7.7,3.19,12.26,2.91,1.28-4.39.54-9,.79-13.49-3.54-.67-7-1.58-10.55-1.94-7.74-.78-14-3.71-19.07-10-6.17-7.71-15.66-11.78-22.07-19.44-2.28-2.73-6.83-2.34-10.37-3.05-16.79-3.35-33.65-6.39-50.48-9.59-4.85-.92-9.67-2-14.5-3" fill="none" stroke="#000" stroke-linecap="round" stroke-linejoin="round" stroke-width="2"/><path d="M484.5,1271c13.67,2.67,27.35,5.26,41,8q22.77,4.62,45.5,9.5,17.78,3.84,35.48,8c3.17.76,6.19,2,9.77,1.25v-11.62c-18-4.55-36-7.37-53.79-11.54-18.5-4.34-37.24-7.81-56-11-11.83-2-23.68-3.95-35.48-6.12" fill="none" stroke="#000" stroke-linecap="round" stroke-linejoin="round" stroke-width="2"/><path d="M505.5,1404c11.45,3.71,23.31,5.79,35,8.44,21.62,4.88,43.33,9.37,65,14.11,1.25.28,2.34.63,3.51,0" fill="none" stroke="#000" stroke-linecap="round" stroke-linejoin="round" stroke-width="2"/><path d="M455.5,1424l64.5,13.5q22.75,4.76,45.51,9.45a3.23,3.23,0,0,1,2,1" fill="none" stroke="#000" stroke-linecap="round" stroke-linejoin="round" stroke-width="2"/><path d="M408.5,1540c-2.64,3.73-.92,8-1.64,11.94a15.78,15.78,0,0,0,1.64.55c5.17,1.18,11,1.22,15.33,3.8,5.22,3.11,9.09,8.46,13.69,12.68,3.74,3.44,7.72,6.55,11.09,10.44,2.25,2.6,6.15,2.51,9.4,3,17.65,2.77,35.06,6.73,52.5,10.54,16.63,3.63,33.33,7,50,10.55,3.51.74,7,1.68,10.52,2.54,1.66,5.15-1.1,10.91,1.63,16.4L577,1619" fill="none" stroke="#000" stroke-linecap="round" stroke-linejoin="round" stroke-width="2"/><path d="M407,1701c15,3.44,30,7,45.05,10.28,20,4.3,39.91,9.09,59.92,13.36a14.74,14.74,0,0,0,8.56-.55c10-3.39,19.78-6.89,28.5-13s10.23-10.15,7.52-20.06c-3.08-11.26-9.6-20.29-17.55-28.49" fill="none" stroke="#000" stroke-linecap="round" stroke-linejoin="round" stroke-width="2"/><path d="M427,1693.5c8.48,2.82,17.33,4,26,6,15.64,3.47,31.35,6.58,47,10.08,11.71,2.63,23.34,5.63,35,8.46" fill="none" stroke="#000" stroke-linecap="round" stroke-linejoin="round" stroke-width="2"/><path d="M540.5,1455c-9.4,3.44-19.36,4.55-29,7a53.22,53.22,0,0,0-6.48,1.56c-6.8,2.66-13-.58-19.52-1.53-15-2.2-29.66-5.72-44.52-8.41-3.08-.56-5.48-1.57-6.92-4.15-1.32-2.36-3.29-4-5.06-6" fill="none" stroke="#000" stroke-linecap="round" stroke-linejoin="round" stroke-width="2"/><path d="M419,1454.5c2.5-3.33,4.9-6.75,7.52-10,10.72-13.23,25.57-20.43,40.49-27.49,2.77-1.31,5.92-2,8.44-3.6,6.45-4.24,12.5-.66,18.53.66,27.38,6,54.7,12.2,82,18.45,7.88,1.8,15.68,4,23.51,6" fill="none" stroke="#000" stroke-linecap="round" stroke-linejoin="round" stroke-width="2"/><path d="M343.5,1818.5c14.67,4,29.28,8.2,44,12,19.12,4.87,38.32,9.41,57.5,14,3.53.85,6,2.79,8.61,5.4A404.44,404.44,0,0,1,486,1886.51c7,8.88,13.34,18.15,18,28.48.69,1.51,1.44,2.88.47,4.51" fill="none" stroke="#000" stroke-linecap="round" stroke-linejoin="round" stroke-width="2"/><path d="M406.5,1537c3.18,5.86,9.45,5.22,14.53,6.36,19.42,4.35,38.9,8.53,58.49,12,15,2.68,29.94,6,45,8.59a7.52,7.52,0,0,0,2.49-.46" fill="none" stroke="#000" stroke-linecap="round" stroke-linejoin="round" stroke-width="2"/><path d="M495,1619.5c-6.16.33-11.88-2.56-18.25-2.49v12.09c12.23,2.16,24.24,4.31,36.26,6.35a6.39,6.39,0,0,1,3,1c6.49,5,13.27,4,20.52,1.61,11.37-3.68,22.6-7.57,33-13.62a21.39,21.39,0,0,0,2.51-2" fill="none" stroke="#000" stroke-linecap="round" stroke-linejoin="round" stroke-width="2"/><path d="M513.5,1726c-8.16,3.73-17,5.46-25.53,7.9-10.21,2.91-20.63,5.13-31,7.59-16.16,3.86-32.35,7.61-48.49,11.56-3.25.8-6.33,2.32-9.51,3.44-19.65,6.92-37.37,17-52.55,31.45A22.12,22.12,0,0,0,340,1799a220.44,220.44,0,0,0-4.47,25.5,8.32,8.32,0,0,0,.46,2.5" fill="none" stroke="#000" stroke-linecap="round" stroke-linejoin="round" stroke-width="2"/><path d="M616,1348c-24.71-4.45-49.38-9.06-73.86-14.4-2.59,7.51-1.07,10.63,5.86,12.38,9.49,2.4,19,4.69,28.5,7" fill="none" stroke="#000" stroke-linecap="round" stroke-linejoin="round" stroke-width="2"/><path d="M353.5,1738.5c.33,0,.88.13,1,0,6.45-10.77,15.55-18.83,26.11-25.33,6.37,2.48,13.21,3.66,19.92,5.34,24,6,48.32,10.73,72.5,16,1,.23,2.23.08,2.5,1.51" fill="none" stroke="#000" stroke-linecap="round" stroke-linejoin="round" stroke-width="2"/><path d="M577.5,1385.5c2.57,6.06,8.43,5.82,13.51,7s10,2,15.24,3.07v12.57c-15.59-3.24-31-6.06-46.21-9.77-6.85-1.68-13.9-2.63-20.6-5.18-3.44-1.31-7,1.37-10.42,2.42-14.26,4.37-28.6,8.52-42.52,13.93-.78.31-1.93.2-2,1.49" fill="none" stroke="#000" stroke-linecap="round" stroke-linejoin="round" stroke-width="2"/><path d="M461.5,1681.5a18.81,18.81,0,0,0-5,.89q-23.6,7-46.45,16.17c-9.69,3.89-19.38,7.88-28,13.94" fill="none" stroke="#000" stroke-linecap="round" stroke-linejoin="round" stroke-width="2"/><path d="M488.5,1147.5c-.68,5.69-2,11.27-2.63,17-1.25,10.89.71,20.36,9.09,28,3.56,3.26,6.71,7,10,10.46" fill="none" stroke="#000" stroke-linecap="round" stroke-linejoin="round" stroke-width="2"/><path d="M367.5,1724c17.47,4,35,7.47,52.55,11.28,9.22,2,18.58,3.78,27.95,5.22,1,.16,2.23.07,2.5,1.5" fill="none" stroke="#000" stroke-linecap="round" stroke-linejoin="round" stroke-width="2"/><path d="M352.5,1809c33.95,10.6,69,16.65,104,25.16,0,3.5,0,7.17,0,10.84s-3.39,1-4.51,2.5" fill="none" stroke="#000" stroke-linecap="round" stroke-linejoin="round" stroke-width="2"/><path d="M470.5,1258c-.27,3.39,1.07,6.63.33,10.11,3,.54,5.34.89,7.67,1.41a11.47,11.47,0,0,1,6.12,3.37c7,7.28,14.55,14.11,21.88,21.11" fill="none" stroke="#000" stroke-linecap="round" stroke-linejoin="round" stroke-width="2"/><path d="M462.5,1682c16,4.53,32.32,7.74,48.5,11.48,9.81,2.27,19.66,4.39,29.51,6.46a3.37,3.37,0,0,1,2,1.06" fill="none" stroke="#000" stroke-linecap="round" stroke-linejoin="round" stroke-width="2"/><path d="M491.5,1239c16.5,3.17,33,6.26,49.49,9.53,9.37,1.85,18.67,4,28,5.94a17.21,17.21,0,0,0,3.24,0v-12.41c-7.59-1.4-14.87-3.37-22.26-3.91-7-.51-11.28-4.7-16-8.7-2.6-2.22-5-4.65-7.52-7" fill="none" stroke="#000" stroke-linecap="round" stroke-linejoin="round" stroke-width="2"/><path d="M488.5,1151c.67,1.33,1.24,2.73,2,4,5.79,9.39,6.17,10,19.49,12.44,21.12,3.93,42.33,7.39,63.48,11.11A8.6,8.6,0,0,1,576,1180" fill="none" stroke="#000" stroke-linecap="round" stroke-linejoin="round" stroke-width="2"/><path d="M448,1579.5c-3.86-.1-5.12,1.86-4.53,5.5.37,2.31-.46,4.73.47,6.88,7.24,1.39,14.35,3.23,21.58,3.92,3.62.35,5.68,2.5,7.89,4.31,7.4,6.05,14.42,12.56,21.59,18.89,3.6,3.19,8.31,2.52,12.52,3.43,14,3,28,5.76,42,8.52a3.23,3.23,0,0,1,2,1" fill="none" stroke="#000" stroke-linecap="round" stroke-linejoin="round" stroke-width="2"/><path d="M439.5,1513l65.75,12.33v12.75a10.41,10.41,0,0,0-5.25-.58" fill="none" stroke="#000" stroke-linecap="round" stroke-linejoin="round" stroke-width="2"/><path d="M385,1790.5c11.16,10.19,22.32,20.39,34,30a53.35,53.35,0,0,1,5,5.46" fill="none" stroke="#000" stroke-linecap="round" stroke-linejoin="round" stroke-width="2"/><path d="M368,1743.5c-2.68,1-4.95-1-8-1v12.23c7.14,1.26,14.31,2.57,21.5,3.76,1.86.31,3.75.32,5,2" fill="none" stroke="#000" stroke-linecap="round" stroke-linejoin="round" stroke-width="2"/><path d="M548,1710.5l-5-8.52c2-2.22,4,0,6.26,0v-12.85c-16.6-3.42-32.94-6.72-49.24-10.18-5.53-1.18-11.23-1.61-16.56-3.84-1.31-.54-3.29.49-4.95.88-5.45,1.27-11,2.24-16,5" fill="none" stroke="#000" stroke-linecap="round" stroke-linejoin="round" stroke-width="2"/><path d="M496,1163.5c-3.29,4.11-.51,8.68-1.72,13,5.87,1.08,11,2.1,16.23,3,1.11.18,2.32.17,3,1.07,3.59,5.1,8.91,8.44,13,13" fill="none" stroke="#000" stroke-linecap="round" stroke-linejoin="round" stroke-width="2"/><path d="M435,1451.5c-1.71,1.55-3.79-1.07-5.5.5,0,9.22,0,9.26,8.51,11.48,3.63,1,7.34,1.63,11,2.53,5,1.24,7,6,10.5,9" fill="none" stroke="#000" stroke-linecap="round" stroke-linejoin="round" stroke-width="2"/><path d="M563,1254c4.47,5,9.86,8.87,15.07,12.91A81.18,81.18,0,0,1,592,1280" fill="none" stroke="#000" stroke-linecap="round" stroke-linejoin="round" stroke-width="2"/><path d="M527,1311c7.56,7.71,16,14.38,24.48,21a19.1,19.1,0,0,1,2.52,3" fill="none" stroke="#000" stroke-linecap="round" stroke-linejoin="round" stroke-width="2"/><path d="M580,1389.5c-2,0-4.32.67-6-.11-7.71-3.71-15.1-1.24-22.54.64-3.69.93-7.78.37-11,3" fill="none" stroke="#000" stroke-linecap="round" stroke-linejoin="round" stroke-width="2"/><path d="M360,1732.5c2.58,3.56,6.11,6.34,8.12,10.44.85,1.72,3.21,2.22,5.37,2.63,10.36,2,20.68,4.25,31,6.46.55.11,1,.64,1.51,1" fill="none" stroke="#000" stroke-linecap="round" stroke-linejoin="round" stroke-width="2"/><path d="M508.5,1230c10.35,2.67,20.75,5.07,31.5,5.5" fill="none" stroke="#000" stroke-linecap="round" stroke-linejoin="round" stroke-width="2"/><path d="M636.5,1334c2.34-3.48.19-7.38,1.21-11-3.81-1.2-7.77-1.14-11.21-3" fill="none" stroke="#000" stroke-linecap="round" stroke-linejoin="round" stroke-width="2"/><path d="M546,1583c4.91,6.74,10.92,12.65,15,20" fill="none" stroke="#000" stroke-linecap="round" stroke-linejoin="round" stroke-width="2"/><path d="M596,1407c4.34,6.16,9.63,11.68,13,18.53,1.43,3,4.54,2,6.55,3.47" fill="none" stroke="#000" stroke-linecap="round" stroke-linejoin="round" stroke-width="2"/><path d="M459,1503.5c5.1,5.79,12,9.59,17,15.5" fill="none" stroke="#000" stroke-linecap="round" stroke-linejoin="round" stroke-width="2"/><path d="M547.5,1186.5c-6.67-1.33-13.29-3.07-20-3.86-4.33-.5-8.43-3-13-1.64" fill="none" stroke="#000" stroke-linecap="round" stroke-linejoin="round" stroke-width="2"/><path d="M516,1668.5a150.24,150.24,0,0,1,13,15.5" fill="none" stroke="#000" stroke-linecap="round" stroke-linejoin="round" stroke-width="2"/><path d="M577,1341.5c-1.11,4-.16,8-.61,12,5.26,0,9.82.59,14.11,2.53" fill="none" stroke="#000" stroke-linecap="round" stroke-linejoin="round" stroke-width="2"/><path d="M469,1471.5c-5.05-1.69-10.05-3.58-15.5-3.5" fill="none" stroke="#000" stroke-linecap="round" stroke-linejoin="round" stroke-width="2"/><path d="M527.5,1410.5V1421" fill="none" stroke="#000" stroke-linecap="round" stroke-linejoin="round" stroke-width="2"/><path d="M458.5,1552c-.31,3.49.6,7-.5,10.5" fill="none" stroke="#000" stroke-linecap="round" stroke-linejoin="round" stroke-width="2"/><path d="M483,1587.5c-1.1,3.46-.19,7-.5,10.5" fill="none" stroke="#000" stroke-linecap="round" stroke-linejoin="round" stroke-width="2"/><path d="M495.5,1679c-.31,3.49.6,7-.5,10.5" fill="none" stroke="#000" stroke-linecap="round" stroke-linejoin="round" stroke-width="2"/><path d="M563.5,1388v10.5" fill="none" stroke="#000" stroke-linecap="round" stroke-linejoin="round" stroke-width="2"/><path d="M488,1431.5c-1.1,3.46-.19,7-.5,10.5" fill="none" stroke="#000" stroke-linecap="round" stroke-linejoin="round" stroke-width="2"/><path d="M524,1267.5c-1.1,3.46-.19,7-.5,10.5" fill="none" stroke="#000" stroke-linecap="round" stroke-linejoin="round" stroke-width="2"/><path d="M419.5,1724v10" fill="none" stroke="#000" stroke-linecap="round" stroke-linejoin="round" stroke-width="2"/><path d="M531.5,1172.5c-.26,3.33.57,6.71-.5,10" fill="none" stroke="#000" stroke-linecap="round" stroke-linejoin="round" stroke-width="2"/><path d="M386.5,1819.5c-.26,3.33.57,6.71-.5,10" fill="none" stroke="#000" stroke-linecap="round" stroke-linejoin="round" stroke-width="2"/><path d="M459,1701.5c-1.07,3.29-.24,6.67-.5,10" fill="none" stroke="#000" stroke-linecap="round" stroke-linejoin="round" stroke-width="2"/><path d="M517.5,1233.5c-.26,3.33.57,6.71-.5,10" fill="none" stroke="#000" stroke-linecap="round" stroke-linejoin="round" stroke-width="2"/><path d="M465.5,1459.5c-.26,3.33.57,6.71-.5,10" fill="none" stroke="#000" stroke-linecap="round" stroke-linejoin="round" stroke-width="2"/><path d="M450.5,1516.5c-.26,3.33.57,6.71-.5,10" fill="none" stroke="#000" stroke-linecap="round" stroke-linejoin="round" stroke-width="2"/><path d="M514.5,1625v10" fill="none" stroke="#000" stroke-linecap="round" stroke-linejoin="round" stroke-width="2"/><path d="M549,1304.5c-1.47,2.87.47,6.13-1,9" fill="none" stroke="#000" stroke-linecap="round" stroke-linejoin="round" stroke-width="2"/><path d="M391.5,1750.5c.21,2.83-.48,5.71.5,8.5" fill="none" stroke="#000" stroke-linecap="round" stroke-linejoin="round" stroke-width="2"/><text transform="translate(1160.76 1412.11)" font-size="30" font-family="Helvetica, Helvetica">5<tspan x="16.68" y="0" letter-spacing="-0.04em">’</tspan><tspan x="22.25" y="0" xml:space="preserve"> end</tspan></text><text transform="translate(1280.72 1721.04)" font-size="30" font-family="Helvetica, Helvetica">3<tspan x="16.68" y="0" letter-spacing="-0.04em">’</tspan><tspan x="22.25" y="0" xml:space="preserve"> end</tspan></text><use width="757.63" height="718.25" transform="translate(1174.73 1420.23) scale(0.35)" xlink:href="#c"/><line x1="1586.63" y1="1424.08" x2="1586.63" y2="1466.38" fill="#fff82c" stroke="#000" stroke-miterlimit="10" stroke-width="0.78"/><use width="608.6" height="350.25" transform="translate(1614.11 1460.18) rotate(180) scale(0.35 0.35)" xlink:href="#d"/><use width="608.6" height="350.25" transform="translate(1665.77 1587.75) rotate(180) scale(0.35 0.35)" xlink:href="#d"/><text transform="translate(1580.76 1608.11)" font-size="30" font-family="Helvetica, Helvetica">5<tspan x="16.68" y="0" letter-spacing="-0.04em">’</tspan><tspan x="22.25" y="0" xml:space="preserve"> end</tspan></text><text transform="translate(1530.72 1309.04)" font-size="30" font-family="Helvetica, Helvetica">3<tspan x="16.68" y="0" letter-spacing="-0.04em">’</tspan><tspan x="22.25" y="0" xml:space="preserve"> end</tspan></text><text transform="translate(1167.74 1793.82)" font-size="30" font-family="Helvetica, Helvetica">sugar-phosphate<tspan x="47.53" y="36">backbone</tspan><tspan x="-18.33" y="72">(covalently bonded)</tspan></text><text transform="translate(1324.95 1355.88)" font-size="30" font-family="Helvetica, Helvetica">bases</text><use width="863.47" height="350.25" transform="translate(87.33 358.82) scale(0.76)" xlink:href="#h"/><text transform="translate(459.6 563.32)" font-size="30" font-family="Helvetica, Helvetica">SUGAR</text><text transform="translate(629.88 418.32)" font-size="30" font-family="Helvetica, Helvetica">BASE</text><text transform="translate(126.17 474.75)" font-size="30" font-family="Helvetica, Helvetica">PHOSPH<tspan x="126.69" y="0" letter-spacing="-0.07em">A</tspan><tspan x="144.49" y="0">TE(S)</tspan></text><text transform="translate(570.96 643.64)" font-size="30" font-family="Helvetica, Helvetica">2<tspan x="16.68" y="0" letter-spacing="-0.04em">’</tspan></text><text transform="translate(420.96 648.64)" font-size="30" font-family="Helvetica, Helvetica">3<tspan x="16.68" y="0" letter-spacing="-0.04em">’</tspan></text><text transform="translate(420.96 457.64)" font-size="30" font-family="Helvetica, Helvetica">5<tspan x="16.68" y="0" letter-spacing="-0.04em">’</tspan></text><polyline points="1160.38 1714.75 1160.38 1746.75 1385.38 1746.75 1385.38 1714.75" fill="none" stroke="#000" stroke-miterlimit="10" stroke-width="4.59"/><text transform="translate(1563.47 1355.75)" font-size="30" font-family="Helvetica, Helvetica">phosphodiester<tspan x="69.21" y="36">bond</tspan></text><line x1="1657.88" y1="1397.25" x2="1610.1" y2="1445.03" fill="none" stroke="#000" stroke-miterlimit="10" stroke-width="3"/><polygon points="1602.62 1431.35 1594.88 1460.25 1623.78 1452.51 1602.62 1431.35"/><line x1="1483.44" y1="1688.3" x2="1459.08" y2="1625.28" fill="none" stroke="#000" stroke-miterlimit="10" stroke-width="3"/><polygon points="1474.61 1623.97 1451.32 1605.2 1446.71 1634.75 1474.61 1623.97"/><line x1="1376.38" y1="1429.75" x2="1377.58" y2="1429.75" fill="none" stroke="#000" stroke-miterlimit="10" stroke-width="4.01"/><line x1="1379.82" y1="1429.75" x2="1410.06" y2="1429.75" fill="none" stroke="#000" stroke-miterlimit="10" stroke-width="4.01" stroke-dasharray="2.24 2.24"/><line x1="1411.18" y1="1429.75" x2="1412.38" y2="1429.75" fill="none" stroke="#000" stroke-miterlimit="10" stroke-width="4.01"/><line x1="1376.38" y1="1451.75" x2="1377.58" y2="1451.75" fill="none" stroke="#000" stroke-miterlimit="10" stroke-width="4.01"/><line x1="1379.82" y1="1451.75" x2="1410.06" y2="1451.75" fill="none" stroke="#000" stroke-miterlimit="10" stroke-width="4.01" stroke-dasharray="2.24 2.24"/><line x1="1411.18" y1="1451.75" x2="1412.38" y2="1451.75" fill="none" stroke="#000" stroke-miterlimit="10" stroke-width="4.01"/><line x1="1376.38" y1="1440.75" x2="1377.58" y2="1440.75" fill="none" stroke="#000" stroke-miterlimit="10" stroke-width="4.01"/><line x1="1379.82" y1="1440.75" x2="1410.06" y2="1440.75" fill="none" stroke="#000" stroke-miterlimit="10" stroke-width="4.01" stroke-dasharray="2.24 2.24"/><line x1="1411.18" y1="1440.75" x2="1412.38" y2="1440.75" fill="none" stroke="#000" stroke-miterlimit="10" stroke-width="4.01"/><line x1="1426.38" y1="1556.75" x2="1427.58" y2="1556.75" fill="none" stroke="#000" stroke-miterlimit="10" stroke-width="4.01"/><line x1="1429.82" y1="1556.75" x2="1460.06" y2="1556.75" fill="none" stroke="#000" stroke-miterlimit="10" stroke-width="4.01" stroke-dasharray="2.24 2.24"/><line x1="1461.18" y1="1556.75" x2="1462.38" y2="1556.75" fill="none" stroke="#000" stroke-miterlimit="10" stroke-width="4.01"/><line x1="1426.38" y1="1578.75" x2="1427.58" y2="1578.75" fill="none" stroke="#000" stroke-miterlimit="10" stroke-width="4.01"/><line x1="1429.82" y1="1578.75" x2="1460.06" y2="1578.75" fill="none" stroke="#000" stroke-miterlimit="10" stroke-width="4.01" stroke-dasharray="2.24 2.24"/><line x1="1461.18" y1="1578.75" x2="1462.38" y2="1578.75" fill="none" stroke="#000" stroke-miterlimit="10" stroke-width="4.01"/><text transform="translate(1491.5 1688.22)" font-size="30" font-family="Helvetica, Helvetica">base pairing<tspan x="-49.2" y="36">(hydrogen bonded) </tspan></text><line x1="1485.38" y1="1752.75" x2="1486.58" y2="1752.75" fill="none" stroke="#000" stroke-miterlimit="10" stroke-width="4.01"/><line x1="1488.82" y1="1752.75" x2="1519.06" y2="1752.75" fill="none" stroke="#000" stroke-miterlimit="10" stroke-width="4.01" stroke-dasharray="2.24 2.24"/><line x1="1520.18" y1="1752.75" x2="1521.38" y2="1752.75" fill="none" stroke="#000" stroke-miterlimit="10" stroke-width="4.01"/><line x1="1485.38" y1="1763.75" x2="1486.58" y2="1763.75" fill="none" stroke="#000" stroke-miterlimit="10" stroke-width="4.01"/><line x1="1488.82" y1="1763.75" x2="1519.06" y2="1763.75" fill="none" stroke="#000" stroke-miterlimit="10" stroke-width="4.01" stroke-dasharray="2.24 2.24"/><line x1="1520.18" y1="1763.75" x2="1521.38" y2="1763.75" fill="none" stroke="#000" stroke-miterlimit="10" stroke-width="4.01"/><path d="M1549.18,1745.45v3.21h-9.06v23.69h-3.68v-23.69h-9.06v-3.21Z"/><path d="M1465.33,1745.2h4.11l9.76,26.9h-4l-2.81-8h-10.55l-2.92,8h-3.73Zm6,15.88-4.14-11.88-4.31,11.88Z"/><line x1="1555.86" y1="1800.77" x2="1557.06" y2="1800.77" fill="none" stroke="#000" stroke-miterlimit="10" stroke-width="4.01"/><line x1="1559.3" y1="1800.77" x2="1589.54" y2="1800.77" fill="none" stroke="#000" stroke-miterlimit="10" stroke-width="4.01" stroke-dasharray="2.24 2.24"/><line x1="1590.66" y1="1800.77" x2="1591.86" y2="1800.77" fill="none" stroke="#000" stroke-miterlimit="10" stroke-width="4.01"/><line x1="1555.86" y1="1822.77" x2="1557.06" y2="1822.77" fill="none" stroke="#000" stroke-miterlimit="10" stroke-width="4.01"/><line x1="1559.3" y1="1822.77" x2="1589.54" y2="1822.77" fill="none" stroke="#000" stroke-miterlimit="10" stroke-width="4.01" stroke-dasharray="2.24 2.24"/><line x1="1590.66" y1="1822.77" x2="1591.86" y2="1822.77" fill="none" stroke="#000" stroke-miterlimit="10" stroke-width="4.01"/><line x1="1555.86" y1="1811.77" x2="1557.06" y2="1811.77" fill="none" stroke="#000" stroke-miterlimit="10" stroke-width="4.01"/><line x1="1559.3" y1="1811.77" x2="1589.54" y2="1811.77" fill="none" stroke="#000" stroke-miterlimit="10" stroke-width="4.01" stroke-dasharray="2.24 2.24"/><line x1="1590.66" y1="1811.77" x2="1591.86" y2="1811.77" fill="none" stroke="#000" stroke-miterlimit="10" stroke-width="4.01"/><path d="M1618.64,1800.29a9.49,9.49,0,0,1,3.09,6.11h-3.55a6.76,6.76,0,0,0-7.33-5.64,7.89,7.89,0,0,0-6.31,2.8q-2.4,2.79-2.4,8.57a12.55,12.55,0,0,0,2.17,7.66,7.5,7.5,0,0,0,6.47,3,6.81,6.81,0,0,0,6-3.1,11.85,11.85,0,0,0,1.64-4.28H1622a12.2,12.2,0,0,1-3.11,7.12,11,11,0,0,1-8.55,3.46,11.22,11.22,0,0,1-7.78-2.84q-4.14-3.75-4.14-11.6a14.89,14.89,0,0,1,3.11-9.76,11.3,11.3,0,0,1,9.28-4.14C1614.17,1797.6,1616.78,1798.49,1618.64,1800.29Z"/><path d="M1544,1799.08q4,2.1,4.84,7.38h-3.61a6.57,6.57,0,0,0-2.67-4.3,9.09,9.09,0,0,0-5.11-1.34,7.93,7.93,0,0,0-6.16,2.8c-1.66,1.87-2.5,4.65-2.5,8.35a13.52,13.52,0,0,0,2.07,7.81q2.05,3,6.72,3a8.5,8.5,0,0,0,5.92-2.11q2.34-2.12,2.39-6.84h-8.42v-3h11.81v14.39H1547l-.88-3.46a13.77,13.77,0,0,1-3.23,2.82,11.93,11.93,0,0,1-6,1.35,11.59,11.59,0,0,1-8.09-3.09q-3.69-3.88-3.69-10.66t3.61-10.75a11.37,11.37,0,0,1,8.87-3.81A13.4,13.4,0,0,1,1544,1799.08Z"/><line x1="1621.38" y1="1753.1" x2="1622.58" y2="1753.1" fill="none" stroke="#000" stroke-miterlimit="10" stroke-width="4.01"/><line x1="1624.82" y1="1753.1" x2="1655.06" y2="1753.1" fill="none" stroke="#000" stroke-miterlimit="10" stroke-width="4.01" stroke-dasharray="2.24 2.24"/><line x1="1656.18" y1="1753.1" x2="1657.38" y2="1753.1" fill="none" stroke="#000" stroke-miterlimit="10" stroke-width="4.01"/><line x1="1621.38" y1="1764.1" x2="1622.58" y2="1764.1" fill="none" stroke="#000" stroke-miterlimit="10" stroke-width="4.01"/><line x1="1624.82" y1="1764.1" x2="1655.06" y2="1764.1" fill="none" stroke="#000" stroke-miterlimit="10" stroke-width="4.01" stroke-dasharray="2.24 2.24"/><line x1="1656.18" y1="1764.1" x2="1657.38" y2="1764.1" fill="none" stroke="#000" stroke-miterlimit="10" stroke-width="4.01"/><path d="M1668.25,1744.8v16.62a9.69,9.69,0,0,0,1.11,4.87,5.81,5.81,0,0,0,5.53,2.93c3.12,0,5.23-1,6.35-3.17a9.89,9.89,0,0,0,.91-4.63V1744.8h3.68v15.1a17.5,17.5,0,0,1-1.34,7.64c-1.65,3.24-4.74,4.87-9.3,4.87s-7.65-1.63-9.28-4.87a17.5,17.5,0,0,1-1.34-7.64v-15.1Z"/><path d="M1600.33,1745.15h4.11l9.76,26.9h-4l-2.81-8.06h-10.55l-2.92,8.06h-3.73Zm6,15.88-4.14-11.89-4.31,11.89Z"/><polyline points="1454.38 1403.75 1454.38 1371.75 1300.38 1371.75 1300.38 1403.75" fill="none" stroke="#000" stroke-miterlimit="10" stroke-width="3.8"/><line x1="1559.88" y1="1209.25" x2="1460.47" y2="1291.52" fill="none" stroke="#000" stroke-miterlimit="10" stroke-width="3"/><polygon points="1454.3 1277.21 1443.88 1305.25 1473.38 1300.26 1454.3 1277.21"/><use width="174.24" height="106.82" transform="translate(1604.28 289.13) scale(0.83 0.83)" xlink:href="#i"/><use width="92.51" height="106.82" transform="translate(1755.11 289.96) scale(0.82 0.82)" xlink:href="#j"/><use width="174.24" height="106.82" transform="translate(1843.79 515.37) rotate(180) scale(0.83 0.83)" xlink:href="#i"/><use width="92.51" height="106.82" transform="translate(1619.2 427.53) scale(0.82 0.82)" xlink:href="#j"/><use width="70" height="520" transform="matrix(0, 0.89, -0.7, 0, 1837.16, 222)" xlink:href="#m"/><use width="92.51" height="106.82" transform="translate(1646.34 537.75) scale(0.82 0.82)" xlink:href="#j"/><use width="92.51" height="106.82" transform="translate(1725.9 537.75) scale(0.82 0.82)" xlink:href="#j"/><use width="174.24" height="106.82" transform="translate(1577.14 672.83) scale(0.83 0.83)" xlink:href="#i"/><use width="174.24" height="106.82" transform="matrix(-0.83, 0, 0, -0.83, 1872.88, 761.7)" xlink:href="#i"/><text transform="translate(683.9 1459.92) scale(0.75 1)" font-size="82.64" font-family="Helvetica-Bold, Helvetica" font-weight="700">major <tspan x="0" y="99.16">groove</tspan></text><text transform="translate(615.89 1843.64) scale(0.75 1)" font-size="82.64" font-family="Helvetica-Bold, Helvetica" font-weight="700">minor groove</text><path d="M89.49,1491.37c-9.22-10.32-11.27-22.92-5.25-32.25,3.29-5.09,3.11-7.51-.85-11.68-9.89-10.42-11.63-24-4.48-35,4.18-6.46,4.16-7.67-.29-16.11-6.23-11.82-1.82-26.47,10.9-36.2,5.57-4.26,5.64-4.42,6-14.7.51-14.13,2.77-21.23,9.74-30.54,4.66-6.23,7.75-8.72,14.64-11.82,19.39-8.69,52.23-1.91,81.05,16.74,7,4.5,11.64,6.7,13.21,6.2,4.63-1.45,12.22-28.11,14.84-52.09,3.93-36.06,9.61-50.79,24.41-63.35,8.69-7.37,17.86-10.9,28.69-11,12.8-.17,20.18,11.17,21.71,14.74,2.87,6.68,6.29,8.7.57,24.27-11.94,32.45-11.73,24.45-2.06,78.82,2.89,16.28,6.14,42.05,7.22,57.28s2.87,31.66,4,36.53l2,8.85,18.75,12.89q18.72,12.88,19,15.34c.15,1.34-1.43,8.93-3.51,16.86-5.36,20.46-16,41.09-30.59,59.1-11,13.59-30.63,32.07-35.78,33.66-1.79.56-7.19-2.28-18.94-10l-16.43-10.73-19.93,3.68c-22,4.07-51.84,4.94-61.6,1.79-7-2.27-29.51-18.22-35.32-25.08-2.71-3.19-5-4.5-9.49-5.32-7.19-1.33-25.19-13-32.23-20.87Zm87.75,40.15c14.82.54,32.54-1.41,53-5.83l17.52-3.79,15.4,10.06c11.36,7.42,16.09,9.84,18.06,9.24,1.46-.46,7-4.68,12.33-9.39,14.39-12.76,31.43-38.91,38.1-58.46,2.69-7.89,4.62-15.62,4.3-17.17-.36-1.72-5.69-6.61-13.71-12.57-7.22-5.37-14.78-11.39-16.8-13.38-5.68-5.57-8.26-17.41-10.41-47.79-1.09-15.36-5-44.9-8.7-65.65s-6.92-40.7-7.17-44.33c-.33-4.9,1.79-12.4,8.26-29.19,4.8-12.42,5.28-16.47,5.11-17.44-.43-2.55-9.49-10.36-17.77-8.44-13.67,3.17-22.14,11.71-26.58,26.78-1.26,4.29-2.88,17-3.6,28.35-1.65,25.77-6.78,45.8-16,62.63l-6.94,12.6-18.31-10.6c-32.77-19-54-26.31-69.25-23.91-18.67,2.94-28.09,22.3-21.41,44,2.62,8.54,9.83,16.82,21,24.1,8.34,5.45,11.45,6.38,35.27,10.55,14.36,2.52,26.9,4.21,27.86,3.76,2.91-1.37-2.06-17.36-7.18-23.08-5.77-6.47-12.7-9.87-29-14.27-16.71-4.5-20.82-7.37-23.3-16.28-2.88-10.33-1.08-11.83,7.46-6.25,4.07,2.66,12.1,5.89,19,7.66,31.24,8,48.42,26.42,49.43,53.09q.69,18.13-5.65,16.79c-3.93-.84-4.33,1.53-1.33,7.91,2.64,5.64,4.24,26.63,2.25,29.66-.51.79-2.86,1.13-5.21.77s-4.54-.27-4.85.2.22,4.28,1.17,8.48c2.21,9.77,2.11,25.06-.18,26.14-1,.45-5,.48-8.91.06l-7.14-.77,1.44,7.86c2.05,9.57,2.14,20-.09,25.21-1,2.38-5,2.61-17.12.43-19.36-3.48-21.11-1.78-7.54,7.39C165.35,1530.27,168.68,1531.21,177.24,1531.52Zm-32.67-30.06c13.34,2.39,24.71,3.63,25.27,2.76,1.31-2-2.52-19.78-4.53-21.1-.83-.53-10.26-2.45-21-4.26-18-3-20.25-3.8-30-10.19-11.82-7.72-15.37-8-16.82-1.31-1.91,8.83,2.56,16.09,15.13,24.56C119.27,1496.41,123.67,1497.72,144.57,1501.46Zm10.19-36c16.31,2.67,30.13,4.13,30.72,3.23,1.49-2.29-3.35-18-6.12-19.79-1.26-.83-11.72-3-23.24-4.81l-20.94-3.31-18.78-12.27c-21.2-13.84-23.9-14.45-25.54-5.73-1.71,9.08,5.66,18.57,24,30.91C124.92,1460.51,125.65,1460.73,154.76,1465.5Zm1.59-36.14,29.43,5.11c7.39,1.27,8.16,1.06,8.45-2.32.43-4.89-6-18.92-9.84-21.42-1.65-1.08-12.54-3.52-24.18-5.42-20.57-3.36-21.51-3.68-32.84-11.16-10.82-7.14-16.46-11.9-23.67-20-2.49-2.78-3.37-2.81-6.75-.21-4.64,3.58-6.15,11-3.44,16.93,3.06,6.73,12.46,15.45,27.18,25.23l14.36,9.54,21.3,3.71Z"/><use width="145" height="117.81" transform="translate(109 1656.51) scale(1.45 1.45)" xlink:href="#a"/><text transform="translate(-0.18 198.65) scale(0.57 1)" font-size="235.68" font-family="Helvetica-BoldOblique, Helvetica" font-weight="700">RIGHT<tspan x="733.15" y="0" xml:space="preserve" font-family="Helvetica-Bold, Helvetica"> THUMBS U</tspan><tspan x="2042.38" y="0" font-family="Helvetica-Bold, Helvetica" letter-spacing="-0.02em">P</tspan><tspan x="2195.43" y="0" xml:space="preserve" font-family="Helvetica-Bold, Helvetica"> FOR DNA!</tspan></text><use width="174.24" height="106.82" transform="translate(815 252)" xlink:href="#i"/><use width="92.51" height="106.82" transform="translate(807 415) scale(0.99 0.99)" xlink:href="#j"/><text transform="translate(1033.07 331.23) scale(0.75 1)" font-size="82.64" font-family="Helvetica, Helvetica">purine</text><text transform="translate(973.11 476.6) scale(0.75 1)" font-size="82.64" font-family="Helvetica, Helvetica">pyrimidine</text><text transform="translate(28.68 1023.46) scale(0.99 1)" font-size="119.98" font-family="Helvetica-LightOblique, Helvetica">A RIGHT-HANDED DOUBLE HELIX</text><text transform="translate(20.81 752.56) scale(0.75 1)" font-size="82.64" font-family="Helvetica-Bold, Helvetica" font-weight="700">HYDROPHILIC</text><text transform="translate(28.56 810.97) scale(1.07 1)" font-size="64.66" font-family="Helvetica-Light, Helvetica">water-loving</text><text transform="translate(795.59 586.21) scale(0.75 1)" font-size="82.64" font-family="Helvetica-Bold, Helvetica" font-weight="700">HYDROPHOBIC</text><text transform="translate(216.4 376.43)" font-size="61.08" font-family="Helvetica-Light, Helvetica">DNA “letter”</text><text transform="translate(914.56 882.37) scale(0.88 1)" font-size="106" font-family="Helvetica, Helvetica">huddle together inside</text><text transform="translate(785 1154.36) scale(0.55 1)" font-size="113.32" font-family="Helvetica-Light, Helvetica">take a look through the groovy windows</text><text transform="translate(815.56 653.05) scale(1.07 1)" font-size="64.66" font-family="Helvetica-Light, Helvetica">water-avoiding</text><text transform="translate(1084.08 765.07) scale(0.88 1)" font-size="88.98" font-family="Helvetica-Light, Helvetica">pair up &amp; </text><text transform="translate(216.25 307.8) scale(0.85 1)" font-size="58.64" font-family="Helvetica-Bold, Helvetica" font-weight="700">NUCLEOTIDE</text><text transform="translate(1064.15 406.67) scale(0.88 1)" font-size="61.08" font-family="Helvetica-LightOblique, Helvetica">OR</text><path d="M69.62,502.55c-4.64,23.52-1,47.23,14,66.39,14,17.95,34.72,29.43,55.75,37.26,22.19,8.25,45.83,12.68,69.38,14.54a251.4,251.4,0,0,0,30.81.65c4.25-.19,8.5-.51,12.73-1,2-.25,4-.52,6-.85a8.59,8.59,0,0,0,2.48-.45c-.73.55-1.26-.26-1.28-.2s1.67,2.71,2,3.58a47.26,47.26,0,0,1,2,7.79,151.45,151.45,0,0,1,2,18.77c.51,8.48.72,17,.57,25.5-.09,4.79,5.94,5.69,8.39,2.27,9.24-12.91,19.2-25.93,30.87-36.73a50.16,50.16,0,0,1,8.06-5.93c1.24-.73.72.3-.08-.72a57.68,57.68,0,0,0,5.31,5.63,111.73,111.73,0,0,0,27,18.81c23,11.75,48.61,17.85,74.13,21a296.19,296.19,0,0,0,80.57-.8c24-3.59,49.54-10.42,68.41-26.39,4.43-3.74-2-10.08-6.36-6.36-16.44,13.9-39.17,19.83-59.93,23.35-26.59,4.51-54.11,4.6-80.86,1.42-25.47-3-51.52-9.25-74.22-21.5-9.45-5.1-18.34-11.31-25.63-19.24-2.73-3-5.18-5.12-9.48-4.25-3.45.7-6.45,2.88-9.15,5-14.35,11.34-25.85,27.33-36.44,42.12L275,674.5c.13-6.93,0-13.88-.32-20.8-.48-10.78-.93-22.32-4.23-32.68-1.13-3.57-2.78-7.69-6.17-9.71s-6.91-.67-10.44-.16a173.13,173.13,0,0,1-26.05,1.44,267,267,0,0,1-66.9-9c-21.92-5.89-44.22-14.92-61.15-30.46C80.27,555.27,73.21,530.71,78.3,505c1.12-5.66-7.55-8.08-8.68-2.4Z"/><line x1="728.5" y1="1477.5" x2="603.54" y2="1526.62" fill="none" stroke="#000" stroke-miterlimit="10" stroke-width="3"/><polygon points="602.14 1511.1 583.5 1534.5 613.08 1538.94 602.14 1511.1"/><line x1="579.44" y1="1811.3" x2="475.1" y2="1725.2" fill="none" stroke="#000" stroke-miterlimit="10" stroke-width="3"/><polygon points="488 1716.45 458.5 1711.5 468.96 1739.53 488 1716.45"/></svg>